<svg xmlns="http://www.w3.org/2000/svg" viewBox="0 0 1440 560" fill="none">
  <defs>
    <linearGradient id="bg" x1="0" y1="0" x2="1440" y2="560" gradientUnits="userSpaceOnUse">
      <stop stop-color="#0c1222"/>
      <stop offset="0.55" stop-color="#172554"/>
      <stop offset="1" stop-color="#0f172a"/>
    </linearGradient>
    <radialGradient id="glow" cx="0" cy="0" r="1" gradientTransform="translate(900 200) rotate(90) scale(360)" gradientUnits="userSpaceOnUse">
      <stop stop-color="#38bdf8" stop-opacity="0.35"/>
      <stop offset="1" stop-color="#38bdf8" stop-opacity="0"/>
    </radialGradient>
  </defs>
  <rect width="1440" height="560" fill="url(#bg)"/>
  <rect width="1440" height="560" fill="url(#glow)"/>
  <g stroke="#38bdf8" stroke-opacity="0.12">
    <rect x="980" y="60" width="220" height="160" rx="16"/>
    <rect x="1020" y="100" width="140" height="80" rx="8"/>
    <path d="M180 380h120v80H180zM320 320h100v140h-100zM460 360h80v100h-80z"/>
  </g>
  <g fill="#38bdf8" fill-opacity="0.08">
    <circle cx="240" cy="120" r="6"/><circle cx="280" cy="160" r="4"/><circle cx="320" cy="120" r="5"/>
    <circle cx="1080" cy="280" r="6"/><circle cx="1120" cy="320" r="4"/><circle cx="1160" cy="280" r="5"/>
  </g>
  <path d="M0 460 L240 380 480 420 720 340 960 400 1200 320 1440 380 V560 H0Z" fill="#0ea5e9" fill-opacity="0.07"/>
</svg>
