<svg xmlns="http://www.w3.org/2000/svg" viewBox="0 0 1440 560" fill="none">
  <defs>
    <linearGradient id="bg" x1="0" y1="0" x2="1440" y2="560" gradientUnits="userSpaceOnUse">
      <stop stop-color="#1e1b4b"/>
      <stop offset="0.5" stop-color="#312e81"/>
      <stop offset="1" stop-color="#4c1d95"/>
    </linearGradient>
    <radialGradient id="glow1" cx="0" cy="0" r="1" gradientTransform="translate(300 300) rotate(90) scale(300)" gradientUnits="userSpaceOnUse">
      <stop stop-color="#ec4899" stop-opacity="0.35"/>
      <stop offset="1" stop-color="#ec4899" stop-opacity="0"/>
    </radialGradient>
    <radialGradient id="glow2" cx="0" cy="0" r="1" gradientTransform="translate(1100 120) rotate(90) scale(260)" gradientUnits="userSpaceOnUse">
      <stop stop-color="#a78bfa" stop-opacity="0.4"/>
      <stop offset="1" stop-color="#a78bfa" stop-opacity="0"/>
    </radialGradient>
  </defs>
  <rect width="1440" height="560" fill="url(#bg)"/>
  <rect width="1440" height="560" fill="url(#glow1)"/>
  <rect width="1440" height="560" fill="url(#glow2)"/>
  <circle cx="1050" cy="180" r="100" fill="#ec4899" fill-opacity="0.1"/>
  <circle cx="1050" cy="180" r="60" fill="#f472b6" fill-opacity="0.08"/>
  <path d="M120 400c80-60 160-40 240-100s160-20 240 20 160 60 240 20 160-80 240-40 160 40 240 0" stroke="#c4b5fd" stroke-opacity="0.2" stroke-width="2" fill="none"/>
  <g fill="#fff" fill-opacity="0.05">
    <rect x="860" y="80" width="48" height="48" rx="12" transform="rotate(15 884 104)"/>
    <rect x="920" y="120" width="36" height="36" rx="8" transform="rotate(-10 938 138)"/>
  </g>
</svg>
